P3
5 3
255
51  51  30  51  51  40  51  51  51  20  30  51  0   0   30  
51  51  30  51  51  40  51  51  51  20  30  51  0   0   30  
51  51  30  51  51  40  51  51  51  20  30  51  0   0   30  
